<svg xmlns="http://www.w3.org/2000/svg" width="108" height="97" viewBox="0 0 108 97" fill="none">
  <path d="M68.0357 0.961868C66.207 0.961868 64.724 2.44162 64.724 4.27035V5.08609H64.0155C63.4148 5.08942 62.8515 5.16105 62.319 5.29084C61.5802 5.47388 60.9155 5.76445 60.3397 6.14884C59.3597 5.48823 58.247 5.12761 57.0573 5.08934C56.9242 5.08601 56.8128 5.08284 56.703 5.08284C56.3819 5.08284 56.0621 5.09696 55.7443 5.11859C55.2151 5.15853 54.5838 5.22542 53.9015 5.38184C53.5005 5.20879 53.0561 5.11209 52.5918 5.11209H46.9791C46.3301 5.11209 45.7284 5.29952 45.2176 5.62234C44.4189 5.26624 43.5551 5.08284 42.6599 5.08284H42.6469C41.5769 5.08617 40.5073 5.08609 39.4424 5.08609H36.5564L35.5619 5.08284C34.2673 5.08284 33.066 5.46083 32.0227 6.18133C30.9611 5.4575 29.7535 5.08284 28.464 5.08284H18.3793C18.1097 5.08284 17.8456 5.11552 17.596 5.17709C17.3481 5.11719 17.0904 5.08609 16.8258 5.08609L10.7093 5.08284L6.78009 5.08609C5.38068 5.08942 4.05523 5.53293 2.93537 6.36658C1.44943 7.46981 0.627883 9.10028 0.627883 10.9523V24.3487C0.627883 25.1125 0.764642 25.8332 1.03088 26.4905C0.789602 26.9497 0.653882 27.4736 0.653882 28.0277V32.6102C0.653882 34.4389 2.13689 35.9219 3.96561 35.9219H5.52235H7.26434C9.22618 35.9219 11.2631 35.9234 13.0103 35.9284C13.002 36.0249 12.9973 36.1243 12.9973 36.2241V40.8716C12.9973 42.2594 13.8513 43.4471 15.061 43.9396V51.5023C15.061 51.5805 15.0625 51.6581 15.0675 51.7363C15.1507 52.926 15.6052 54.0057 16.3773 54.866L16.491 54.9928C16.4378 55.0227 16.385 55.0521 16.3318 55.087C15.5464 54.7392 14.6968 54.5638 13.8065 54.5638H13.7903L10.2543 54.567L6.71834 54.5638C5.28398 54.5638 3.92443 55.0462 2.76962 55.958C1.37353 57.0662 0.619329 58.6435 0.637633 60.404C0.644289 60.9681 0.640883 61.9124 0.640883 62.796V63.6345C0.640883 64.2119 0.790798 64.7544 1.05038 65.227C0.749198 65.9541 0.602845 66.7527 0.631133 67.5897C0.664412 68.5365 0.647539 72.1194 0.640883 73.4689L0.637633 73.9531C0.630977 75.8701 1.463 77.0927 2.16187 77.7816C3.45146 79.0512 5.03717 79.7265 6.74109 79.7349C8.00406 79.7382 9.41606 79.7381 10.8621 79.7381H13.8585H16.569C17.2246 79.7381 17.8358 79.5476 18.35 79.2181C19.1304 79.5609 19.9768 79.7381 20.872 79.7381L24.395 79.7316C25.41 79.7316 26.4252 79.7331 27.4402 79.7381C28.9461 79.7381 30.3152 79.238 31.5449 78.2496C32.7064 79.2164 34.1088 79.7282 35.6497 79.7349L42.1399 79.7414C43.5592 79.7414 44.8635 79.3204 46.0366 78.4901C47.0699 79.2739 48.3586 79.7381 49.7513 79.7381H62.2312C62.2579 79.7381 62.2826 79.7333 62.3092 79.7316C62.2976 79.9213 62.2917 80.1022 62.2767 80.3069C62.2135 81.1488 62.155 82.0917 62.2865 83.1733C62.2865 83.19 62.2816 83.2055 62.2832 83.2221C62.2899 83.3153 62.3171 83.3939 62.3287 83.4821C62.347 83.5986 62.3542 83.71 62.3775 83.8298C62.3841 83.8615 62.4049 83.8844 62.4132 83.9143C62.9174 85.773 64.7734 86.7815 66.5472 86.8198C66.5805 86.8198 66.6147 86.8231 66.648 86.8231C67.6297 86.8231 68.6395 86.5069 69.4299 85.8546C70.1737 85.3204 70.7194 84.4648 70.8209 83.3033C71.385 83.498 71.9989 83.8414 72.6279 84.3888L74.4479 87.8403L77.9514 94.4735C78.5271 95.5651 79.6612 96.248 80.8959 96.248H84.2368C85.5348 96.248 86.7152 95.494 87.2593 94.3143L91.091 86.0073L91.5038 85.1168C92.384 84.1134 93.2584 83.5712 94.0388 83.3033C94.1386 84.4631 94.6828 85.3172 95.4233 85.8513C96.2137 86.5069 97.2251 86.8231 98.2085 86.8231C98.2418 86.8231 98.2727 86.8198 98.306 86.8198C100.093 86.7832 101.964 85.7622 102.453 83.8786C102.456 83.8619 102.466 83.8465 102.469 83.8298C102.483 83.7633 102.487 83.703 102.498 83.6381C102.525 83.4983 102.565 83.3702 102.576 83.2221C102.578 83.1955 102.568 83.1707 102.567 83.1441C102.693 82.0741 102.636 81.1422 102.573 80.3069C102.52 79.5947 102.474 78.9798 102.56 78.4024C102.678 77.617 102.914 77.1354 103.161 76.6279C104.073 74.7592 104.139 73.4444 102.108 70.6057C102.062 70.5408 102.011 70.4819 101.956 70.4237C101.157 69.59 100.26 68.8553 99.3167 68.1714C99.3284 68.1481 99.3392 68.1232 99.3525 68.0999C99.5655 67.6906 99.7759 67.2821 100.015 66.8877C100.375 66.2953 100.724 65.7885 101.081 65.3342C101.531 64.7668 101.923 64.6207 102.212 64.5575C102.494 64.4976 102.806 64.4665 103.152 64.4665L103.304 64.4697L103.558 64.473L103.844 64.4697C105.663 64.4431 107.123 62.9605 107.123 61.1417V57.8723C107.123 56.0352 105.634 54.5443 103.795 54.5443H90.6198C91.3719 53.5559 91.7901 52.3619 91.7768 51.044V42.0514C91.7768 41.8483 91.7565 41.6512 91.7215 41.4599C91.7565 41.2668 91.7768 41.0697 91.7768 40.8684V36.2306C91.7768 34.4019 90.2938 32.9189 88.4651 32.9189L85.6863 32.9157H84.4351C83.886 31.849 82.7768 31.1168 81.4939 31.1152L76.0924 31.1119H76.0891C75.2954 31.1119 74.5318 31.3957 73.9344 31.9082C73.798 31.8915 73.6582 31.8822 73.5184 31.8822H73.5152C72.7131 31.8838 70.032 31.8854 67.6392 31.8854C66.2448 31.8854 64.9467 31.8855 64.1812 31.8822H64.1552C62.7192 31.8822 61.4489 32.2518 60.369 32.9839C59.2974 32.2601 58.0335 31.8822 56.664 31.8822H56.651H53.7943H49.9268C48.4925 31.8822 47.1772 32.2911 46.0723 33.0782C45.014 32.3244 43.7754 31.9279 42.4259 31.9179C42.2295 31.9163 41.9996 31.9163 41.7434 31.9147C41.7434 31.2824 41.7418 30.6866 41.7401 30.2507H43.1019H45.4256H45.4418C45.6998 30.249 45.953 30.2195 46.1926 30.1629C46.4439 30.2245 46.703 30.2572 46.9726 30.2572H52.5885C52.8248 30.2572 53.0546 30.2323 53.2775 30.1857C53.5005 30.2323 53.7335 30.2572 53.9698 30.2572H59.602C60.2676 30.2572 60.8866 30.0604 61.4057 29.7209C62.2228 30.077 63.0938 30.2572 64.009 30.2572H73.5152C75.3439 30.2572 76.8269 28.7742 76.8269 26.9455V4.27035C76.8269 2.44162 75.3439 0.961868 73.5152 0.961868H68.0357ZM68.0357 4.27035H73.5217V26.9487H64.022H64.0155C63.2251 26.9487 62.5382 26.6806 61.9225 26.1947C61.4067 25.787 61.1439 25.2536 61.1522 24.5697V11.0466C61.1522 9.71203 61.834 8.82123 63.112 8.50507C63.4048 8.43352 63.7159 8.39948 64.0187 8.39782L68.0357 8.39457V4.27035ZM42.6469 8.39132H42.6566C43.462 8.39132 44.1442 8.68592 44.7366 9.22007C45.1742 9.61443 45.4189 10.1191 45.4288 10.7248V26.939C43.9213 26.939 42.183 26.939 40.4824 26.939C38.7801 26.939 37.1166 26.9389 35.7472 26.9422H35.7277C34.9206 26.9422 34.218 26.6827 33.5957 26.1752C33.0798 25.7542 32.7993 25.2167 32.8027 24.5145C32.8176 22.2664 32.8142 20.0093 32.8059 17.7513C32.8043 17.2171 32.9795 16.7752 33.3389 16.4058C33.9979 15.7252 34.7694 15.3333 35.7212 15.3333H35.7894L39.7674 15.3365V13.0615H38.4479V14.108H32.8092V10.6826C32.8092 10.1817 32.998 9.75491 33.3292 9.39881C33.9332 8.75319 34.6653 8.39457 35.5522 8.39457C36.8467 8.39623 38.1446 8.39782 39.4391 8.39782C40.5091 8.39782 41.5769 8.39465 42.6469 8.39132ZM6.78334 8.39457C7.77674 8.39457 9.22171 8.39457 10.7093 8.39457C13.6829 8.39457 16.8193 8.39457 16.8193 8.39457C16.8193 16.3468 16.8258 25.9297 16.8258 30.1629C16.8258 30.9167 16.5094 31.4739 15.932 31.9082C15.2931 32.3907 14.5793 32.6167 13.7773 32.6167H13.7675C11.8689 32.6117 9.52063 32.6102 7.26759 32.6102H3.96886V28.0277H11.0701V26.874H7.07259C6.31381 26.874 5.61366 26.6856 4.97635 26.263C4.2858 25.807 3.93961 25.1991 3.93961 24.3455V10.9491C3.93961 10.1204 4.26074 9.50112 4.91136 9.01857C5.46879 8.60423 6.09445 8.39623 6.78334 8.39457ZM18.3728 8.39457H28.4607C29.3942 8.39457 30.1505 8.79172 30.7812 9.45731C31.1157 9.81174 31.254 10.2522 31.2557 10.7281C31.2623 12.625 31.2556 14.5186 31.2589 16.4155C31.2589 16.7899 31.1035 17.0768 30.8007 17.2865C30.7341 17.3348 30.6672 17.3793 30.5374 17.5108C30.5874 17.5224 30.6422 17.5182 30.6804 17.5465C31.0049 17.7845 31.1733 18.1158 31.2232 18.5085C31.2465 18.6965 31.2589 18.8843 31.2589 19.074C31.2606 21.0841 31.2622 26.6489 31.2622 29.9419H38.4316C38.4333 31.0818 38.4349 34.4825 38.4349 35.2296H40.1866C41.0602 35.2296 41.8672 35.2279 42.4064 35.2329C43.3199 35.2396 44.0868 35.5957 44.7008 36.2696C45.017 36.6157 45.1686 37.0322 45.1786 37.4981C45.1736 37.583 45.1721 53.7513 45.1721 53.7513H39.8291V40.0299H38.4251L38.4284 53.7513H32.8254V34.6804H28.3047C27.4261 34.6804 26.691 34.3387 26.072 33.7347C25.6809 33.3553 25.4966 32.8994 25.5 32.3437C25.5016 31.9277 25.5 31.3936 25.5 30.8162C25.5016 26.9158 25.5 20.1206 25.5 19.9775H24.1057V28.9994H18.3728V8.39457ZM56.6998 8.39782C56.783 8.39782 56.8668 8.39941 56.95 8.40107C57.8486 8.42936 58.5789 8.83722 59.1763 9.50281C59.4691 9.83062 59.587 10.2416 59.602 10.6826V10.9328V26.952H53.9698L53.9665 13.0778H52.6015L52.5885 26.952H46.9726C46.9759 26.947 46.9758 14.6088 46.9758 8.42707H52.5885V9.47681C52.6584 9.46683 52.6969 9.47237 52.7185 9.45406C53.6936 8.74853 54.812 8.51035 55.9718 8.42382C56.2131 8.40718 56.4552 8.39782 56.6998 8.39782ZM66.6415 12.9738V22.4735H67.9415V12.9738H66.6415ZM24.1285 13.0518V15.2618H25.4382V13.0518H24.1285ZM9.72132 13.0583V22.2785H11.0506V13.0583H9.72132ZM38.4381 19.997V22.3175H39.7284V19.997H38.4381ZM18.363 33.1334H23.7645V36.2209C26.0907 36.2209 28.4326 36.2274 30.7422 36.2274V40.8684H23.8392V49.0096H25.1587V45.5386V42.0546H30.7422V51.0798C30.7505 51.9368 30.4244 52.5699 29.7704 53.0558C29.1598 53.5101 28.4882 53.7545 27.7295 53.7545H27.7132L21.2327 53.748C20.2859 53.7447 19.4864 53.37 18.8408 52.6528C18.5479 52.3266 18.4027 51.9416 18.3728 51.5023V40.8716H16.3123V36.2241H18.363V33.1334ZM76.0891 34.4237L81.4906 34.4269V36.2241C81.9515 36.2241 82.4125 36.2241 82.8751 36.2241C84.7438 36.2241 86.6131 36.2274 88.4618 36.2274V40.8684H81.5654V49.0063H82.8849V45.5386V42.0514H88.4651V51.0765C88.4734 51.9335 88.1473 52.5667 87.4933 53.0525C86.8826 53.5068 86.2176 53.7545 85.4588 53.7545H85.4361H78.9556C78.0088 53.7495 77.2125 53.3667 76.5669 52.6495C76.274 52.3234 76.1289 51.9416 76.0989 51.5023V40.8684H74.5519V36.2241H76.0891V34.4237ZM49.9106 35.1939H49.9203C51.2116 35.1956 52.503 35.1971 53.7943 35.1971C54.7478 35.1971 55.7008 35.1956 56.6543 35.1939H56.664C57.5177 35.1939 58.2709 35.4531 58.9065 36.0421C59.3708 36.4681 59.6021 36.9889 59.5988 37.6379L59.5955 46.8093H52.6243V49.1103H53.96V47.9728H59.5988C59.5988 49.0594 59.5987 50.5471 59.602 51.434C59.6037 52.0031 59.3857 52.4703 58.978 52.838C58.334 53.4204 57.588 53.7513 56.716 53.7513H56.7063C55.4699 53.7496 54.236 53.748 53.0013 53.748C51.9813 53.748 50.9598 53.7496 49.9398 53.7513H49.9203C49.095 53.7513 48.3721 53.476 47.7331 52.9485C47.2339 52.5375 46.9791 52.0135 46.9791 51.3495V37.6119H46.9758C46.9758 36.9962 47.2077 36.4825 47.6453 36.0681C48.286 35.4625 49.047 35.1939 49.9106 35.1939ZM64.1552 35.1939H64.1682C64.937 35.1972 66.2381 35.2004 67.6392 35.2004C70.0337 35.2004 72.7196 35.1956 73.5217 35.1939V39.8349H66.7065V40.9724H73.5217V45.5028H66.7065V53.7513H61.149V38.9704C61.149 38.5228 61.1507 38.0742 61.149 37.6249C61.144 36.9942 61.3791 36.4794 61.8217 36.0584C62.484 35.4294 63.2733 35.1939 64.1552 35.1939ZM52.6243 39.8836V42.1066H53.9535V39.8836H52.6243ZM68.6239 47.5666H73.7784V51.174C73.7784 52.2057 73.95 52.8581 74.4642 53.5953C74.4958 53.6402 74.5519 53.7448 74.5519 53.7448L68.6239 53.7513V47.5666ZM32.7962 57.0955L38.1976 57.0988V58.896C40.5239 58.896 42.8657 58.9025 45.1753 58.9025V63.5402H45.1721H38.2724V71.6814H39.5919V68.2104V64.7265H45.1721V73.7516C45.1804 74.6086 44.8543 75.2418 44.2004 75.7276C43.5897 76.1819 42.9214 76.4264 42.1626 76.4264H42.1431L35.6627 76.4199C34.7158 76.4149 33.9196 76.0418 33.2739 75.3246C32.9811 74.9985 32.8359 74.6134 32.8059 74.1741V63.5435H31.2589V58.896H32.7962V57.0955ZM49.6083 57.8268H56.846C56.846 57.8451 56.8395 57.8637 56.8395 57.882V61.1937C56.8395 62.8477 58.0472 64.2085 59.628 64.4665V73.7971C59.628 75.2481 58.4514 76.4264 56.9988 76.4264H49.7481C48.1739 76.4264 46.9011 75.1486 46.9011 73.5761V60.5372C46.9011 59.0413 48.1124 57.8268 49.6083 57.8268ZM6.70534 57.8723H6.71509C7.89653 57.8739 9.0778 57.8755 10.2576 57.8755C11.4373 57.8755 12.617 57.8739 13.7968 57.8723H13.8065C14.6735 57.8723 15.3945 58.2103 16.0035 58.831C16.3829 59.2187 16.5658 59.6973 16.5658 60.2447C16.5674 65.2833 16.569 71.298 16.569 76.4264C14.8102 76.4264 12.8072 76.4264 10.8653 76.4264C9.42097 76.4264 8.01033 76.4265 6.75734 76.4231C5.86877 76.4181 5.11792 76.0477 4.48561 75.4254C4.08625 75.031 3.9477 74.5252 3.94936 73.9694C3.95435 72.9477 3.9828 68.619 3.94286 67.4792C3.91457 66.6023 4.27683 65.9747 4.9341 65.4805C5.50485 65.0511 6.12791 64.8175 6.84509 64.8175H6.90034H10.9303V62.5457H9.58482V63.6345H3.95261C3.95261 62.5579 3.95768 61.1254 3.94936 60.3682C3.94104 59.6061 4.24454 59.014 4.82361 58.5547C5.37938 58.1155 5.99648 57.8723 6.70534 57.8723ZM24.8142 57.8723H30.2287V74.0637H30.2254C30.2304 74.7109 30.0105 75.2164 29.5429 75.6074C28.9373 76.1149 28.2631 76.4264 27.4727 76.4264H27.4565C26.4364 76.4214 25.4183 76.4199 24.3982 76.4199C23.2235 76.4199 22.05 76.4231 20.8753 76.4264C19.9784 76.4264 19.2274 76.0735 18.61 75.3896C18.2872 75.0302 18.1193 74.6101 18.1193 74.1059C18.1209 69.3003 18.1225 62.9756 18.1225 57.8788C19.9512 57.8854 22.2045 57.895 23.5207 57.895V71.7952H24.811L24.8142 57.8723ZM87.0643 57.8723H103.795V61.1417C103.795 61.1417 103.675 61.1417 103.555 61.1417C103.495 61.1417 103.434 61.1434 103.389 61.1417C103.309 61.1401 103.23 61.1385 103.148 61.1385C102.593 61.1385 102.042 61.1878 101.497 61.3042C100.235 61.5805 99.2457 62.2901 98.462 63.2802C97.9944 63.8759 97.5645 64.5082 97.1718 65.1555C96.9205 65.5665 96.696 65.9921 96.473 66.4197C94.9521 65.6509 93.2945 65.0267 91.494 64.5575C91.5789 64.1564 91.6171 63.7467 91.5688 63.3257C91.5056 62.7666 91.2366 62.3308 90.7823 62.003C90.2199 61.5953 89.5811 61.3731 88.9006 61.2782C88.3881 61.2034 87.8711 61.185 87.3536 61.1417C87.2654 61.1351 87.1726 61.1321 87.0611 61.1255C87.0611 60.0372 87.0643 57.8723 87.0643 57.8723ZM60.1675 57.882H83.7429V61.1775H83.3399C83.2633 61.1758 83.1841 61.1742 83.1059 61.1742C82.991 61.1742 82.8762 61.1855 82.7614 61.1905C82.6715 61.1938 82.5815 61.1968 82.4916 61.2035H82.4851C82.2289 61.2218 81.9759 61.2557 81.7246 61.3172C81.4717 61.3805 81.2117 61.4624 80.9771 61.5772C80.1518 61.9816 79.8273 62.6812 79.8689 63.5565C74.8952 63.8743 70.6819 65.0437 67.2525 67.0404C66.7117 66.1003 66.1786 65.1576 65.6145 64.2325C65.3033 63.7249 64.926 63.2539 64.555 62.783C64.149 62.2721 63.6834 61.8745 63.1542 61.6032C62.6251 61.332 62.0307 61.1921 61.3667 61.1905H60.9735H60.1675V57.882ZM52.634 62.5392V71.7659H53.9373V62.5392H52.634ZM82.3876 65.1165C82.3976 65.1165 82.4069 65.1165 82.4169 65.1165C82.4268 65.1165 82.4394 65.1165 82.4494 65.1165C90.3017 65.173 96.5285 67.1712 100.75 71.5742C103.419 75.3115 101.388 74.9871 100.909 78.1554C100.655 79.8443 101.236 81.413 100.831 83.5146C101.229 77.1448 91.7451 74.2591 82.4201 74.2392C73.0951 74.2608 63.6113 77.1448 64.009 83.5146C63.6046 81.4113 64.1856 79.8427 63.931 78.1554C63.4534 74.9871 61.4212 75.3115 64.0902 71.5742C68.3118 67.1712 74.5386 65.173 82.3876 65.1165ZM80.3694 67.1347C79.2595 67.184 78.1672 67.2807 77.0706 67.4304C76.8809 67.4571 76.6916 67.4915 76.5019 67.5214L76.4304 67.5312V67.8367C76.4886 67.8367 76.5396 67.8382 76.5929 67.8432C77.2235 67.8881 77.7156 68.3695 77.7206 68.9319C77.729 69.5609 77.732 69.8792 77.7336 70.5082V71.3662C77.737 71.6174 77.6577 71.8535 77.4996 72.0682C77.2434 72.4126 76.9266 72.6487 76.5571 72.7702C76.5222 72.7801 76.4913 72.7927 76.4596 72.8027V73.0919C78.2285 72.8323 79.8835 72.6882 81.5491 72.6499C81.5474 72.61 81.5459 72.3891 81.5426 72.3542C80.7256 72.271 80.2313 71.741 80.2296 70.9307C80.2296 70.9307 80.2134 69.7565 80.2134 68.8962C80.2134 68.3088 80.6402 67.4012 81.4939 67.4012C81.9964 67.4012 82.3635 68.0196 82.4916 68.2559L84.6301 72.7182L86.2681 72.8287C86.3263 72.6939 88.1373 68.5163 88.2538 68.3599C88.5533 67.9556 88.9699 67.9196 89.2711 67.9862C90.0465 68.1592 90.0897 68.9423 90.1063 69.1237C90.1163 69.2501 90.1211 71.2785 90.1128 71.9674C90.1095 72.6047 89.8192 72.8904 89.1736 72.8904H88.8388V73.1732C90.4679 73.3745 92.3968 73.7613 95.342 75.0126V72.3737C95.2389 72.3304 95.1979 72.3459 95.0398 72.4224C94.9266 72.4757 92.5113 73.6704 92.5113 73.6704V71.3662L93.782 72.5557V70.5439L92.5113 71.0314V68.7629C92.5096 68.7579 93.735 69.9338 95.1178 71.3532C95.2043 71.4397 95.2655 71.489 95.342 71.5189V69.5559C95.342 69.4777 95.3339 69.4656 95.264 69.4389C95.066 69.3624 94.8705 69.2848 94.6725 69.2049C94.3797 69.0851 94.0896 68.9702 93.7918 68.8637C93.3758 68.7172 92.8325 68.5442 92.508 68.4477C89.9804 67.6856 87.1584 67.2844 83.7688 67.1379C82.6074 67.0855 81.4792 67.0854 80.3694 67.1347ZM86.2583 67.5962C86.656 67.6245 87.0461 67.83 87.3373 68.2527C87.4871 68.4723 87.5149 68.7398 87.4251 68.9644L86.2746 71.5482L85.1988 69.2862C85.114 69.0965 85.0269 68.9071 84.9453 68.7174C84.7972 68.373 84.8496 68.1671 85.1208 67.9342C85.5036 67.613 85.8823 67.5662 86.2583 67.5962ZM75.8909 67.6124L75.3059 67.7164C74.7268 67.8246 74.1495 67.9249 73.5704 68.0447C71.9464 68.3742 70.4999 68.8578 69.1504 69.5267C69.0955 69.555 68.9722 69.6138 68.9522 69.6404C68.9505 69.6521 68.9619 69.9362 68.9619 69.9362C69.348 69.8513 69.6602 69.8963 69.8882 70.0727C70.1245 70.2607 70.2489 70.5806 70.2489 71.0282C70.2489 71.0282 70.2505 72.4349 70.2522 72.8742C70.2538 73.6862 69.878 74.3213 69.1342 74.7689C69.0909 74.7939 69.0204 74.8346 68.9522 74.8729V75.1816C70.8242 74.3763 72.7173 73.787 74.7274 73.3876V73.0952C74.6925 73.0968 74.6537 73.1001 74.6104 73.0952L74.4804 73.0887C74.2541 73.0787 74.013 73.0657 73.7817 73.0042C73.3174 72.8777 73.1024 72.5993 73.1024 72.1234V70.9664L74.4089 71.6944L74.4154 69.7119L73.1024 70.6804L73.1057 68.4639L75.8909 70.0239V67.6124ZM9.60757 69.4844V71.7952H10.9303V69.4844H9.60757ZM82.4234 75.8999C83.1788 75.9016 83.9143 75.9331 84.6431 75.9714L85.6603 78.4901L86.6678 76.1339C88.4416 76.3153 90.0975 76.5992 91.5818 76.9919C89.1208 82.3183 86.683 87.6136 84.2336 92.92H80.8926C78.1337 87.6951 75.3663 82.4535 72.5824 77.1836C75.3347 76.3733 78.7127 75.9082 82.4234 75.8999ZM94.7375 78.1001C96.077 78.7041 97.1914 79.4072 97.9485 80.2159C98.7672 81.0895 99.1508 82.0433 99.1575 83.1116C99.081 84.4112 98.1941 84.8752 97.422 84.8536C97.0659 84.8486 96.7157 84.7205 96.4145 84.5058C96.0568 84.178 95.7913 83.7084 95.6898 83.0661C96.3371 83.106 96.7548 83.2866 96.798 83.3066C97.2074 83.5013 97.7018 83.3228 97.8965 82.9101C98.0945 82.4958 97.9208 81.9982 97.5065 81.8018C96.6146 81.3742 94.8536 81.1188 92.95 81.9741L94.7375 78.1001ZM69.4559 78.3861C69.4576 78.3895 69.4608 78.3941 69.4624 78.3991L71.2044 81.6979C69.5754 81.182 68.1222 81.4275 67.3435 81.8018C66.9291 81.9982 66.7522 82.4958 66.9502 82.9101C67.1449 83.3244 67.6441 83.4997 68.0584 83.3033C68.0684 83.2983 68.4945 83.1093 69.1634 83.0693C69.0569 83.7366 68.763 84.2121 68.3769 84.5416C68.0891 84.728 67.764 84.8503 67.4312 84.8536C66.6791 84.8652 65.769 84.4112 65.6925 83.1083C65.6925 83.1 65.6876 83.0907 65.686 83.0823C65.6993 82.024 66.0829 81.0795 66.895 80.2126C67.5306 79.5337 68.401 78.9236 69.4559 78.3861Z" fill="white"/>
</svg>