<svg xmlns="http://www.w3.org/2000/svg" width="116" height="97" viewBox="0 0 116 80" fill="none">
<path d="M86.9344 0.841064H69.7339C66.5805 0.841064 64.0004 3.42114 64.0004 6.57456C64.0004 9.72798 66.5805 12.3081 69.7339 12.3081H86.9344C96.3947 12.3081 104.135 20.0483 104.135 29.5085C104.135 38.9688 96.3947 46.709 86.9344 46.709H69.7339C66.5805 46.709 64.0004 49.2891 64.0004 52.4425C64.0004 55.596 66.5805 58.176 69.7339 58.176H86.9344C102.759 58.176 115.602 45.333 115.602 29.5085C115.602 13.6841 102.759 0.841064 86.9344 0.841064ZM35.3329 29.5085C35.3329 32.662 37.913 35.242 41.0664 35.242H75.4674C78.6208 35.242 81.2009 32.662 81.2009 29.5085C81.2009 26.3551 78.6208 23.7751 75.4674 23.7751H41.0664C37.913 23.7751 35.3329 26.3551 35.3329 29.5085ZM46.7999 46.709H29.5994C20.1392 46.709 12.3989 38.9688 12.3989 29.5085C12.3989 20.0483 20.1392 12.3081 29.5994 12.3081H46.7999C49.9533 12.3081 52.5334 9.72798 52.5334 6.57456C52.5334 3.42114 49.9533 0.841064 46.7999 0.841064H29.5994C13.775 0.841064 0.931946 13.6841 0.931946 29.5085C0.931946 45.333 13.775 58.176 29.5994 58.176H46.7999C49.9533 58.176 52.5334 55.596 52.5334 52.4425C52.5334 49.2891 49.9533 46.709 46.7999 46.709Z" fill="white"/>
</svg>