 <svg width="30" height="35" viewBox="0 0 30 35" fill="none" xmlns="http://www.w3.org/2000/svg">
   <path d="M26.2895 0.75C28.1919 0.75 29.7454 2.25918 29.7778 4.14188V34.25L26.1194 31.0675L24.0604 29.1915L21.8824 27.1982L22.7843 30.297H3.48825C2.57111 30.2949 1.69151 29.9382 1.03902 29.3037C0.386531 28.6693 0.0133866 27.8078 0 26.9051L0 4.2005C0 2.3111 1.53313 0.781825 3.4287 0.75H26.2895ZM12.4556 8.7565L12.2855 8.5555H12.1885C11.7239 8.57057 9.65991 8.723 7.504 10.3142L7.42232 10.4683C6.99523 11.2891 5.05371 15.2789 5.05371 20.0795L5.08775 20.1348C5.32937 20.4982 6.82166 22.5183 10.2436 22.6255L10.7455 22.0208L11.3836 21.2352C9.39957 20.6507 8.54877 19.4748 8.42286 19.2855L8.40584 19.2587L8.47561 19.304C8.55218 19.3542 8.69171 19.438 8.88229 19.5435C8.8993 19.5602 8.91632 19.577 8.95035 19.5938C9.0014 19.6272 9.05244 19.644 9.10349 19.6775C9.52889 19.912 9.95429 20.0963 10.3457 20.247C11.0433 20.515 11.8771 20.783 12.847 20.9672C14.0874 21.195 15.5355 21.2805 17.1146 21.0091L17.2541 20.984C18.0538 20.85 18.8706 20.6155 19.7214 20.2637C20.317 20.046 20.9806 19.7278 21.6782 19.2755L21.651 19.3174C21.4876 19.5519 20.596 20.7127 18.5984 21.2687L18.8791 21.6155C19.3096 22.1414 19.7214 22.6255 19.7214 22.6255C23.4819 22.5082 24.9283 20.0795 24.9283 20.0795C24.9283 14.686 22.478 10.3142 22.478 10.3142C20.3714 8.75817 18.3516 8.57727 17.8275 8.55717L17.6965 8.5555L17.4583 8.8235C20.0243 9.59568 21.3719 10.671 21.6442 10.9055L21.6952 10.9508C19.0879 9.53524 16.087 8.9832 13.1363 9.37625C13.0342 9.37625 12.9491 9.393 12.847 9.40975L12.7517 9.41813C12.1051 9.48345 10.7149 9.71795 8.98438 10.465L8.73765 10.5789C8.42796 10.7229 8.20335 10.8352 8.08254 10.8972L7.98044 10.9508C7.98044 10.9508 9.36383 9.6543 12.3637 8.7833L12.4556 8.7565ZM11.809 14.8033C12.7789 14.8033 13.5617 15.6407 13.5446 16.6625C13.5446 17.6842 12.7789 18.5217 11.809 18.5217C10.8561 18.5217 10.0734 17.6842 10.0734 16.6625C10.0734 15.6407 10.8391 14.8033 11.809 14.8033ZM18.0198 14.8033C18.9897 14.8033 19.7554 15.6407 19.7554 16.6625C19.7554 17.6842 18.9897 18.5217 18.0198 18.5217C17.0669 18.5217 16.2842 17.6842 16.2842 16.6625C16.2842 15.6407 17.0499 14.8033 18.0198 14.8033Z" fill="white"/>
</svg>