<svg width="25" height="30" viewBox="0 0 25 30" fill="none" xmlns="http://www.w3.org/2000/svg">
  <path d="M19.9237 5.41526C18.8527 4.18882 18.2625 2.61377 18.263 0.983337H13.4217V20.4712C13.3844 21.5258 12.9405 22.5247 12.1836 23.2576C11.4267 23.9905 10.4158 24.4001 9.36383 24.4003C7.13905 24.4003 5.29028 22.5772 5.29028 20.3141C5.29028 17.6109 7.89109 15.5835 10.5702 16.4165V11.4502C5.16494 10.7273 0.43335 14.9392 0.43335 20.3141C0.43335 25.5475 4.75759 29.2722 9.34817 29.2722C14.2678 29.2722 18.263 25.2646 18.263 20.3141V10.4287C20.2261 11.8429 22.5831 12.6017 25 12.5975V7.74124C25 7.74124 22.0545 7.88268 19.9237 5.41526Z" fill="white"/>
</svg>