<svg width="42" height="30" viewBox="0 0 42 30" fill="none" xmlns="http://www.w3.org/2000/svg">
  <path d="M16.9578 21.1897L27.3897 15.1278L16.9578 9.06588V21.1897ZM40.1934 5.36812C40.4547 6.31781 40.6356 7.59081 40.7562 9.20732C40.8969 10.8238 40.9572 12.2181 40.9572 13.4304L41.0778 15.1278C41.0778 19.553 40.7562 22.8062 40.1934 24.8874C39.6909 26.706 38.5251 27.878 36.7161 28.3831C35.7714 28.6458 34.0428 28.8277 31.3896 28.9489C28.7766 29.0904 26.3847 29.151 24.1737 29.151L20.9778 29.2722C12.5559 29.2722 7.30978 28.9489 5.23948 28.3831C3.43048 27.878 2.26468 26.706 1.76218 24.8874C1.50088 23.9377 1.31998 22.6648 1.19938 21.0482C1.05868 19.4317 0.998377 18.0375 0.998377 16.8251L0.877777 15.1278C0.877777 10.7026 1.19938 7.44937 1.76218 5.36812C2.26468 3.54954 3.43048 2.37758 5.23948 1.87242C6.18418 1.60973 7.91278 1.42788 10.566 1.30664C13.179 1.16519 15.5709 1.10458 17.7819 1.10458L20.9778 0.983337C29.3997 0.983337 34.6458 1.30664 36.7161 1.87242C38.5251 2.37758 39.6909 3.54954 40.1934 5.36812Z" fill="white"/>
</svg>