<svg xmlns="http://www.w3.org/2000/svg" width="19" height="19" viewBox="0 0 19 19" fill="none">
  <path opacity="0.7" fill-rule="evenodd" clip-rule="evenodd" d="M17.7273 4.75013C16.8935 3.30595 15.6942 2.10669 14.25 1.27289C12.8284 0.452092 11.2184 0.0136526 9.57696 0.000313731C7.93549 -0.0130252 6.31857 0.399192 4.88385 1.19678C3.44912 1.99436 2.24554 3.1501 1.39046 4.55131C0.53537 5.95252 0.0579531 7.55138 0.00475013 9.19203L3.06388e-09 9.49983C-4.23437e-05 11.1674 0.438881 12.8057 1.27265 14.2499C2.10643 15.6941 3.30567 16.8933 4.74984 17.7272C6.19402 18.561 7.83224 19 9.49985 19C11.1675 19 12.8057 18.5611 14.2499 17.7273C15.6941 16.8935 16.8934 15.6943 17.7272 14.2501C18.561 12.8059 19 11.1677 19 9.50013C19 7.83253 18.5611 6.19431 17.7273 4.75013ZM15.8326 9.49981C15.8326 12.9977 12.9971 15.8331 9.49923 15.8331C6.00133 15.8331 3.16589 12.9977 3.16589 9.49981C3.16589 6.00191 6.00133 3.16647 9.49923 3.16647C9.79246 3.16647 9.84123 3.60537 9.58979 3.75737C9.05505 4.08022 8.60078 4.52052 8.2614 5.04493C7.92202 5.56934 7.70643 6.16411 7.63096 6.78418C7.55548 7.40425 7.62211 8.03337 7.82578 8.62388C8.02946 9.21439 8.36485 9.7508 8.80654 10.1925C9.24823 10.6342 9.78465 10.9696 10.3752 11.1733C10.9657 11.3769 11.5948 11.4436 12.2149 11.3681C12.8349 11.2926 13.4297 11.077 13.9541 10.7376C14.4785 10.3983 14.9188 9.94399 15.2417 9.40924C15.393 9.15781 15.8326 9.20657 15.8326 9.49981Z" fill="white"/>
</svg>