<svg xmlns="http://www.w3.org/2000/svg" width="19" height="19" viewBox="0 0 19 19" fill="none">
  <path d="M4.75 15.2C4.48083 15.2 4.25505 15.1088 4.07265 14.9264C3.89025 14.744 3.79937 14.5185 3.8 14.25V12.35H16.15V3.8H18.05C18.3192 3.8 18.5449 3.8912 18.7273 4.0736C18.9097 4.256 19.0006 4.48147 19 4.75V19L15.2 15.2H4.75ZM0 14.25V0.950003C0 0.680836 0.0912001 0.455053 0.2736 0.272653C0.456 0.0902532 0.681467 -0.000630046 0.95 3.2872e-06H13.3C13.5692 3.2872e-06 13.7949 0.0912034 13.9773 0.273603C14.1597 0.456003 14.2506 0.68147 14.25 0.950003V9.5C14.25 9.76917 14.1588 9.99495 13.9764 10.1774C13.794 10.3598 13.5685 10.4506 13.3 10.45H3.8L0 14.25Z" fill="white" fill-opacity="0.7"/>
</svg>